# xmcd CD database file
#
# Track frame offsets:
#	225
#	697
#	13799
#	32423
#	48658
#	58960
#	68266
#	82956
#	105039
#	120609
#	151547
#	170672
#
# Disc length: 2564 seconds
#
# Revision: 0
# Processed by: cddbd v1.4PL0 Copyright (c) Steve Scherf et al.
# Submitted via: Feurio! 1.63 - http://www.feurio.com
#
DISCID=820a010c
DTITLE=Country Company - Best Of The Old 99 Session II
DYEAR=1900
DGENRE=Country
TTITLE0=Laba #3
TTITLE1=Let´s Get Back To Me And You
TTITLE2=Thank God It´s Friday
TTITLE3=Country Roads
TTITLE4=Big River
TTITLE5=Hello Trouble
TTITLE6=Rocky Top
TTITLE7=The Thunder Rolls
TTITLE8=Jonny B. Goode
TTITLE9=Verdamp lang her
TTITLE10=Life #9
TTITLE11=Wonderful Tonight
EXTD=
EXTT0=
EXTT1=
EXTT2=
EXTT3=
EXTT4=
EXTT5=
EXTT6=
EXTT7=
EXTT8=
EXTT9=
EXTT10=
EXTT11=
PLAYORDER=
